PathFileType	4	(X/Y/Z)	s04c0202.trc
DataRate	CameraRate	NumFrames	NumMarkers	Units	OrigDataRate	OrigDataStartFrame	OrigNumFrames
200	200	5	50	mm	200	750	2000
Frame#	Time	racr			lacr			c7			jug			rlel			rdr			llel			ldr			s2			lic			ric			lasi			rasi			rpsi			lpsi			rgt			lgt			rth1			rth2			rth3			rth4			rlfc			rmfc			rsh1			rsh2			rsh3			rsh4			rlmal			rmmal			rcal			rtoe			rmt5			lth1			lth2			lth4			lth3			llfc			lmfc			lsh1			lsh2			lsh3			lsh4			llmal			lmmal			lcal			ltoe			lmt5			SBIKE			LBIKE			RBIKE			
		X1	Y1	Z1	X2	Y2	Z2	X3	Y3	Z3	X4	Y4	Z4	X5	Y5	Z5	X6	Y6	Z6	X7	Y7	Z7	X8	Y8	Z8	X9	Y9	Z9	X10	Y10	Z10	X11	Y11	Z11	X12	Y12	Z12	X13	Y13	Z13	X14	Y14	Z14	X15	Y15	Z15	X16	Y16	Z16	X17	Y17	Z17	X18	Y18	Z18	X19	Y19	Z19	X20	Y20	Z20	X21	Y21	Z21	X22	Y22	Z22	X23	Y23	Z23	X24	Y24	Z24	X25	Y25	Z25	X26	Y26	Z26	X27	Y27	Z27	X28	Y28	Z28	X29	Y29	Z29	X30	Y30	Z30	X31	Y31	Z31	X32	Y32	Z32	X33	Y33	Z33	X34	Y34	Z34	X35	Y35	Z35	X36	Y36	Z36	X37	Y37	Z37	X38	Y38	Z38	X39	Y39	Z39	X40	Y40	Z40	X41	Y41	Z41	X42	Y42	Z42	X43	Y43	Z43	X44	Y44	Z44	X45	Y45	Z45	X46	Y46	Z46	X47	Y47	Z47	X48	Y48	Z48	X49	Y49	Z49	X50	Y50	Z50	
750	3.7500	501.215449	1369.833077	-142.715088	501.788078	1363.421892	-408.331412	477.799988	1430.138877	-279.638525	454.605683	1275.356969	-281.979388	447.835519	1092.383316	17.294594	658.843780	934.991684	-118.119688	464.171596	1126.629773	-582.830674	657.694035	936.119563	-485.427909	-75.263199	1182.136825	-300.539649	85.611978	1197.308619	-450.551285	70.168092	1201.152656	-131.113970	124.899665	1149.768377	-402.230119	121.451769	1161.691754	-172.700320	-49.354009	1227.114988	-257.064691	-49.732570	1230.817420	-331.088939	32.233168	1138.188971	-116.605396	57.619036	1106.069225	-480.775853	150.284893	1019.519582	-102.046244	224.049035	972.287554	-114.941180	266.061471	898.521934	-121.212629	247.657623	997.778226	-130.160536	354.805364	782.256774	-145.156639	328.923543	753.440845	-254.346511	326.989687	659.197498	-111.112476	331.610351	568.715486	-122.573655	290.087467	493.216757	-123.373211	361.749454	565.509653	-147.370527	270.883204	341.445739	-121.301599	286.265010	347.854799	-208.039611	201.409886	309.273057	-151.726363	501.115246	286.158454	-169.642563	438.993419	264.439462	-108.575761	119.569165	1041.092354	-488.197662	198.526101	1005.713639	-490.619084	220.004256	1030.486844	-475.393363	251.206978	934.747038	-502.676372	344.432575	811.245958	-483.213878	371.451488	781.819469	-375.172718	274.486693	715.217249	-500.466688	227.842609	648.382527	-468.731019	148.652280	608.235408	-460.774134	249.005563	633.603007	-439.999642	38.185429	516.396388	-444.510299	38.578439	522.065575	-356.073601	-39.754933	544.396689	-397.987931	194.674254	350.663989	-415.743485	113.859538	366.789115	-473.004725	-149.041865	914.663961	-301.837412	-17.426808	79.571060	-485.362172	-17.418113	79.301841	-84.704977	
751	3.7550	501.961837	1370.559692	-143.493245	501.689034	1364.350585	-409.359978	478.060731	1431.050315	-280.284082	455.083856	1276.393167	-282.700064	449.065366	1092.733155	16.124900	660.553818	934.127147	-119.281519	464.721854	1126.943328	-582.843459	658.665561	936.660849	-485.133716	-74.675237	1182.798917	-299.711643	85.631041	1199.075066	-450.044824	71.100237	1201.228830	-130.472926	125.131002	1151.561323	-401.883121	122.305045	1161.526687	-172.259520	-51.497134	1228.534445	-254.367571	-49.602142	1231.739988	-329.970442	32.650914	1137.691320	-116.452385	58.587230	1108.700538	-480.844505	148.595983	1017.125344	-101.067054	221.399344	968.476044	-113.446384	261.891620	893.724064	-119.734472	245.174997	993.260538	-128.755330	348.703170	775.898293	-143.452529	322.610754	746.925053	-252.526444	321.764135	652.328230	-109.741679	327.144983	561.920125	-121.391840	286.122395	486.126781	-122.424489	357.119878	558.996541	-146.399038	267.740415	333.974807	-120.975288	283.307335	340.643863	-207.648385	198.542432	302.217452	-151.554512	498.106039	277.709901	-169.534574	435.910944	256.174822	-108.504457	120.969514	1044.682978	-488.618057	200.550427	1010.451264	-491.305892	221.638368	1035.472970	-476.040381	254.194797	940.410850	-503.859634	349.155249	818.363265	-485.061259	387.040139	791.456994	-373.927770	279.312899	722.497120	-502.071624	232.554665	655.897179	-470.139679	153.208763	616.063478	-461.791516	253.665328	641.202869	-441.243020	42.393923	524.737260	-444.986955	43.029487	530.751152	-356.566034	-35.425723	553.086074	-398.360745	198.122581	358.138444	-415.859013	117.373875	374.646773	-473.017145	-149.089124	915.085632	-301.198179	-17.414019	79.623513	-485.328511	-17.414948	79.330586	-84.701038	
752	3.7600	502.599539	1371.231114	-144.301003	501.636947	1365.168945	-410.226974	478.304860	1431.954843	-280.888238	455.453349	1277.266404	-283.448746	450.345118	1093.018654	14.850817	661.825974	933.891725	-120.064467	465.219792	1127.208997	-582.953136	659.668540	937.261058	-484.927253	-74.123222	1183.248368	-299.052889	85.563886	1200.795780	-449.535145	72.000340	1201.201489	-129.841285	125.422586	1153.442519	-401.744068	124.223332	1161.132666	-171.371957	-48.764201	1227.994073	-254.968144	-49.698284	1232.581445	-328.950644	32.999191	1137.225972	-116.312186	59.535032	1111.277660	-480.903062	146.801811	1014.811743	-100.190788	218.638632	964.704967	-111.907086	257.870059	889.078865	-118.070749	242.919170	988.701211	-127.115609	342.407484	769.518793	-141.769047	316.275727	740.584375	-250.908596	316.368333	645.535359	-108.490131	322.341702	555.306065	-120.490691	281.854416	479.168220	-121.715612	352.266907	552.610954	-145.557685	264.230750	326.804576	-120.879004	280.120654	333.661659	-207.499613	195.353304	295.711472	-151.519070	494.853978	269.124130	-169.493468	432.454424	248.082518	-108.467032	122.627730	1048.598335	-489.187242	202.457949	1015.315611	-492.015244	223.239960	1040.657916	-476.802968	257.209028	946.216576	-505.070518	353.981070	825.540486	-486.957455	382.440845	796.439247	-379.769639	284.445976	729.693070	-503.624494	237.525360	663.533650	-471.322717	158.103438	623.838265	-462.804072	258.591472	648.918593	-442.362510	46.989663	532.930709	-445.578483	47.917778	539.218198	-357.032153	-30.717011	561.683290	-398.865989	201.872778	365.682735	-416.440180	121.275809	382.335699	-473.076634	-149.044544	915.657639	-300.167302	-17.406673	79.646314	-485.338183	-17.403318	79.319049	-84.696994	
753	3.7650	503.192349	1371.843379	-145.142827	501.662576	1366.044153	-411.257047	478.521165	1432.812011	-281.501542	455.815300	1278.261404	-284.315422	451.592436	1093.311772	13.542914	663.050221	933.644852	-120.906880	465.635215	1127.420523	-583.115012	660.672173	937.795070	-484.822361	-73.649939	1183.557515	-298.312784	85.389431	1202.434932	-448.989134	72.878933	1201.203203	-128.681743	126.179846	1155.834239	-402.451180	125.007220	1161.002123	-171.328682	-48.013436	1228.177548	-254.063167	-49.343186	1233.093601	-327.993245	33.297651	1136.744514	-116.247219	60.403778	1113.800759	-480.948030	145.068558	1012.733035	-99.326378	215.825526	960.972403	-110.537413	253.482746	884.627539	-116.537103	240.766401	984.335297	-126.560212	335.992042	763.387156	-139.670895	310.076762	734.642043	-249.255467	310.569836	639.023336	-107.345023	317.261159	548.773741	-119.579368	277.279549	472.422647	-121.091158	347.194769	546.467601	-144.717547	260.449952	319.958765	-120.859006	276.859738	326.753824	-207.336906	191.805450	289.500897	-151.681913	491.210015	260.570708	-169.362807	428.540566	240.062756	-108.392969	124.118128	1052.430601	-489.687428	204.338878	1020.251284	-492.750019	224.767183	1045.856270	-477.529408	260.171071	952.075146	-506.310688	358.212181	832.686796	-488.417556	387.717551	804.191558	-381.320595	289.804315	737.150824	-505.133118	242.760405	671.086735	-472.497209	163.256353	631.641618	-463.792986	263.786890	656.720889	-443.404689	51.746076	540.990280	-445.842293	54.148283	547.408614	-357.768327	-25.654375	570.043343	-399.492145	206.182566	372.554737	-416.019013	125.742604	389.964660	-473.055919	-149.120324	916.006605	-299.519602	-17.394126	79.687750	-485.317501	-17.410577	79.358834	-84.680083	
754	3.7700	503.663527	1372.569567	-145.982231	501.779096	1366.825835	-412.307479	478.714029	1433.750149	-282.187433	456.047886	1279.245070	-285.029817	452.869392	1093.476847	12.198094	664.398156	933.314879	-121.761065	465.978378	1127.596109	-583.375120	661.566061	938.285907	-484.653380	-73.129945	1183.957008	-297.477364	85.120406	1204.052793	-448.475334	73.767302	1201.023699	-128.120983	126.397601	1157.676893	-402.281336	125.942520	1160.682330	-171.137776	-46.935079	1228.381459	-253.352200	-46.277337	1232.848507	-328.236509	33.595457	1136.145784	-116.198171	61.238130	1116.254996	-480.947036	143.284060	1010.553391	-98.404148	212.995431	957.376239	-109.262997	249.053251	880.207451	-115.178686	238.561589	979.989028	-125.048899	329.449031	757.381696	-138.113359	303.890236	728.939301	-247.746260	304.569081	632.759662	-106.148327	311.817043	542.585515	-118.716572	272.343252	465.937464	-120.611649	341.836664	540.555342	-143.730086	256.423493	313.381136	-120.987997	273.199447	320.205476	-207.306853	187.949245	283.494560	-151.994471	487.226881	252.470859	-169.356523	424.324638	232.311783	-108.358539	125.644429	1056.084383	-490.302108	206.109333	1025.294975	-493.495314	226.214103	1051.086017	-478.235452	263.027607	958.088931	-507.569524	362.925331	840.251847	-490.246795	392.760104	812.261237	-382.599324	295.219476	744.607924	-506.508478	248.128202	678.780506	-473.634006	168.572939	639.362693	-464.852726	269.121248	664.553309	-444.449112	56.850804	548.943577	-446.418038	58.684056	555.348332	-358.002330	-20.149635	578.230272	-400.342023	210.665507	379.538462	-415.934965	130.406476	397.266064	-473.092722	-148.987950	916.422009	-298.704536	-17.392938	79.732287	-485.310724	-17.392504	79.331527	-84.679069	
